# xmcd
# 
# Track frame offsets:
#     150
#     19845
#     32385
#     46211
#     56650
#     75112
#     88462
#     104868
#     127822
#     146603
#     163215
#     175701
#     189722
#     202974
#     222416
#     245120
#     261267
#     276446
# 
# Disc length: 3953
# 
# Revision: 1
# Processed by: cddbd v1.5.2PL0 Copyright (c) Steve Scherf et al.
# Submitted via: fre:ac v1.0.17
# 
DISCID=0a0f6f12
DTITLE=Mason, Dave - Dave Mason - Split Coconut
DYEAR=1975
DGENRE=Rock
TTITLE0=Show Me Some Affection
TTITLE1=Get Ahold On Love
TTITLE2=Every Woman
TTITLE3=It Can't Make Any Difference To Me
TTITLE4=All Along The Watchtower
TTITLE5=Bring It On Home To Me
TTITLE6=Harmony and Melody
TTITLE7=Relation Ships
TTITLE8=You Can't Take It When You Go
TTITLE9=Split Coconut
TTITLE10=Crying, Waiting and Hoping
TTITLE11=You Can Lose It
TTITLE12=She's A Friend
TTITLE13=Save Your Love
TTITLE14=Give Me A Reason Why
TTITLE15=Two Guitar Lovers
TTITLE16=Sweet Music
TTITLE17=Long Lost Friend
EXTD=
EXTT0=
EXTT1=
EXTT2=
EXTT3=
EXTT4=
EXTT5=
EXTT6=
EXTT7=
EXTT8=
EXTT9=
EXTT10=
EXTT11=
EXTT12=
EXTT13=
EXTT14=
EXTT15=
EXTT16=
EXTT17=
PLAYORDER=
